<?xml version="1.0" standalone="no"?>
<!DOCTYPE svg PUBLIC "-//W3C//DTD SVG 20010904//EN"
 "http://www.w3.org/TR/2001/REC-SVG-20010904/DTD/svg10.dtd">
<svg version="1.0" xmlns="http://www.w3.org/2000/svg"
 width="577.000000pt" height="577.000000pt" viewBox="0 0 577.000000 577.000000"
 preserveAspectRatio="xMidYMid meet">
<metadata>
Created by potrace 1.14, written by Peter Selinger 2001-2017
</metadata>
<g transform="translate(0.000000,577.000000) scale(0.100000,-0.100000)"
fill="#000000" stroke="none">
<path d="M2525 3677 c-17 -7 -53 -28 -80 -47 -28 -19 -58 -39 -67 -45 -38 -23
-404 -271 -415 -282 -7 -6 -23 -20 -36 -30 -41 -32 -87 -105 -107 -171 -16
-52 -20 -93 -20 -211 0 -200 23 -282 104 -369 30 -32 150 -122 163 -122 4 0
16 -9 27 -19 12 -11 35 -27 53 -38 17 -10 84 -54 148 -98 214 -147 232 -156
297 -157 66 0 134 41 167 102 22 39 25 57 26 163 1 126 -9 168 -53 213 -11 12
-81 62 -154 110 -73 49 -135 91 -138 94 -3 3 -36 26 -75 50 -103 66 -103 65
-54 96 23 14 47 30 53 35 12 10 51 37 171 115 44 29 85 57 91 62 6 5 28 21 50
35 100 64 120 108 118 267 -1 118 -10 153 -47 194 -56 61 -146 82 -222 53z"/>
<path d="M3090 3671 c-84 -45 -108 -106 -105 -266 2 -114 11 -146 53 -191 16
-17 305 -217 360 -249 9 -5 19 -12 22 -16 3 -3 22 -15 42 -28 30 -18 35 -25
25 -35 -6 -6 -105 -74 -220 -151 -114 -76 -223 -154 -242 -173 -43 -43 -50
-74 -48 -224 0 -102 3 -121 23 -152 42 -69 129 -109 206 -95 57 11 608 378
664 443 77 88 100 174 100 367 0 151 -9 198 -51 280 -30 59 -71 101 -154 157
-38 26 -72 49 -75 52 -3 3 -39 27 -80 55 -41 27 -76 53 -78 57 -2 4 -8 8 -13
8 -4 0 -58 34 -120 76 -61 42 -126 82 -145 90 -46 19 -122 17 -164 -5z"/>
</g>
</svg>
